IKResults
version=1
nRows=16
nColumns=40
inDegrees=yes

Units are S.I. units (second, meters, Newtons, ...)
Angles are in degrees.

endheader
time	pelvis_tilt	pelvis_list	pelvis_rotation	pelvis_tx	pelvis_ty	pelvis_tz	hip_flexion_r	hip_adduction_r	hip_rotation_r	knee_angle_r	knee_angle_r_beta	ankle_angle_r	subtalar_angle_r	mtp_angle_r	hip_flexion_l	hip_adduction_l	hip_rotation_l	knee_angle_l	knee_angle_l_beta	ankle_angle_l	subtalar_angle_l	mtp_angle_l	lumbar_extension	lumbar_bending	lumbar_rotation	arm_flex_r	arm_add_r	arm_rot_r	elbow_flex_r	pro_sup_r	wrist_flex_r	wrist_dev_r	arm_flex_l	arm_add_l	arm_rot_l	elbow_flex_l	pro_sup_l	wrist_flex_l	wrist_dev_l
      2.12000000	     19.80320520	      0.12892835	      0.40804728	      0.22767756	      0.95468647	     -1.47204260	     -2.40662358	     -2.01122887	     -5.24160451	    -47.48596760	     -0.82878648	      7.14509233	    -16.56421294	     10.32970587	    -20.32001385	     -2.00693136	     11.46097430	    -14.66062728	     -0.25587622	     11.15399375	     -0.56537235	     -4.06435660	    -24.65350513	     -0.54934441	     -1.47402879	     -3.59182898	    -10.33869489	      4.77037568	     22.78722931	     89.95437384	      0.00000000	      0.00000000	      7.53557847	     11.93652696	     -4.68887162	     22.44044880	     89.95437384	      0.00000000	      0.00000000
      2.13000000	     19.80337939	     -0.08755084	      0.64206807	      0.23438797	      0.95458085	     -1.47274202	     -1.89622473	     -1.92819044	     -6.11101531	    -45.71144480	     -0.79781522	      7.50985826	    -16.64537203	     11.13831211	    -20.87143774	     -1.78642947	     11.09724615	    -14.43776385	     -0.25198652	     11.49131760	     -0.38925017	     -4.19917097	    -24.71347515	     -0.22690032	     -1.76776060	     -3.53569728	    -10.26300170	      4.47986863	     22.47885484	     89.95437384	      0.00000000	      0.00000000	      8.23953039	     11.96236490	     -3.80140480	     22.95929612	     89.95437384	      0.00000000	      0.00000000
      2.14000000	     19.64770728	     -0.22525360	      0.73828746	      0.24091290	      0.95411639	     -1.47316531	     -1.15454561	     -1.90023491	     -6.76525288	    -43.99540779	     -0.76786472	      7.87668293	    -16.58061653	     11.50236847	    -21.16740743	     -1.67559356	     10.85983552	    -14.39905510	     -0.25131092	     11.83347529	     -0.23596786	     -4.27031358	    -24.60669884	     -0.05473266	     -1.93608230	     -3.43244047	    -10.17422101	      4.25094649	     22.03408055	     89.95437384	      0.00000000	      0.00000000	      8.97283811	     11.99366221	     -3.05886023	     23.40271124	     89.95437384	      0.00000000	      0.00000000
      2.15000000	     19.58240474	     -0.46679996	      0.97495739	      0.24743514	      0.95380627	     -1.47373795	     -0.65277312	     -1.75129741	     -7.56611294	    -42.05901826	     -0.73406835	      7.93343024	    -16.32482389	     11.90875176	    -21.55214859	     -1.39559505	     10.60484871	    -14.37580906	     -0.25090520	     12.13714410	      0.12017535	     -4.33895724	    -24.61643873	      0.28415932	     -2.21854494	     -3.31908559	    -10.08651847	      4.01676954	     21.62113652	     89.95437384	      0.00000000	      0.00000000	      9.63558280	     11.98597406	     -1.95056595	     24.01246076	     89.95437384	      0.00000000	      0.00000000
      2.16000000	     19.17299054	     -0.38622138	      0.80176439	      0.25380220	      0.95278817	     -1.47395335	      0.46662554	     -2.03514938	     -8.13844787	    -40.51876515	     -0.70718586	      7.95350192	    -15.92528926	     11.84834005	    -21.50618130	     -1.59531138	     10.70812885	    -14.44639261	     -0.25213712	     12.32902868	      0.16332207	     -4.31117252	    -24.27990910	      0.14357075	     -2.14969501	     -3.40849198	    -10.10061286	      3.97620710	     21.52203121	     89.95437384	      0.00000000	      0.00000000	     10.30502742	     12.05602684	     -1.56136456	     24.62861992	     89.95437384	      0.00000000	      0.00000000
      2.17000000	     19.31884603	     -0.91300683	      1.42865911	      0.26017807	      0.95290079	     -1.47456834	      0.40760385	     -1.42790247	     -9.17621096	    -37.98450051	     -0.66295460	      7.52329702	    -15.24023486	     12.12601830	    -22.05965044	     -0.85434173	     10.02490932	    -14.48005097	     -0.25272457	     12.90675836	      0.45326760	     -4.41238761	    -24.54619413	      0.88879016	     -2.76925977	     -3.08650703	     -9.91132589	      3.52704635	     20.88559138	     89.95437384	      0.00000000	      0.00000000	     10.94241597	     11.84510036	      0.76311595	     25.22681651	     89.95437384	      0.00000000	      0.00000000
      2.18000000	     19.26886053	     -1.12031310	      1.57055542	      0.26694527	      0.95257269	     -1.47505280	      0.70986906	     -1.28485513	     -9.91716178	    -35.77877278	     -0.62445739	      7.07876584	    -14.40939166	     12.15434131	    -22.52530944	     -0.65140229	      9.86039944	    -14.33123065	     -0.25012716	     13.13281384	      0.79249082	     -4.46341809	    -24.53816828	      1.18353188	     -2.93704887	     -3.06171531	     -9.90100241	      3.38585883	     20.59184438	     89.95437384	      0.00000000	      0.00000000	     11.48855728	     11.65826229	      2.32279218	     25.93167319	     89.95437384	      0.00000000	      0.00000000
      2.19000000	     19.02339761	     -1.25645337	      1.50509453	      0.27338726	      0.95189499	     -1.47493764	      1.34234209	     -1.20901136	    -10.55105870	    -33.72617746	     -0.58863284	      6.26333623	    -13.18484818	     11.98557863	    -22.68375064	     -0.57396202	      9.63062018	    -14.39552827	     -0.25124937	     13.47454379	      0.89273878	     -4.49080588	    -24.35973596	      1.26941945	     -2.92494189	     -3.03175914	     -9.83141826	      3.21968024	     20.34334426	     89.95437384	      0.00000000	      0.00000000	     11.99326200	     11.62694910	      3.34388638	     26.73893538	     89.95437384	      0.00000000	      0.00000000
      2.20000000	     19.03954464	     -1.52165485	      1.84758914	      0.28018576	      0.95162802	     -1.47536084	      1.42071885	     -1.01870993	    -11.84974066	    -31.33635429	     -0.54692256	      5.44358299	    -11.72621071	     11.57292204	    -23.16347955	     -0.19394779	      9.27567661	    -14.36271843	     -0.25067673	     13.64739130	      1.15852629	     -4.56104497	    -24.41673370	      1.66037266	     -3.22981865	     -3.08029660	     -9.78103716	      2.99237912	     20.20968670	     89.95437384	      0.00000000	      0.00000000	     12.40899352	     11.44058698	      4.95357824	     27.67965953	     89.95437384	      0.00000000	      0.00000000
      2.21000000	     18.81311417	     -1.68860378	      1.94479210	      0.28675974	      0.95093057	     -1.47542671	      1.88292630	     -0.88176287	    -12.61354494	    -29.19923927	     -0.50962286	      4.47756879	    -10.12635748	     11.13982756	    -23.32155006	      0.00011413	      9.11503615	    -14.46268904	     -0.25242154	     14.00381953	      1.30338576	     -4.58708888	    -24.23485198	      1.85246716	     -3.30966294	     -3.15109234	     -9.76510020	      2.93900005	     20.08171394	     89.95437384	      0.00000000	      0.00000000	     12.75538926	     11.35460406	      5.95662453	     28.76504062	     89.95437384	      0.00000000	      0.00000000
      2.22000000	     18.74247377	     -1.96071839	      2.23925652	      0.29364603	      0.95041724	     -1.47567046	      2.00149933	     -0.65189899	    -14.04185163	    -26.85048392	     -0.46862935	      3.82548719	     -8.34553968	     10.51033331	    -23.69264607	      0.39716112	      8.88217120	    -14.48116601	     -0.25274403	     14.27368418	      1.43728001	     -4.64343713	    -24.17777368	      2.23768258	     -3.53177796	     -3.29808756	     -9.74278159	      2.77502766	     20.08793087	     89.95437384	      0.00000000	      0.00000000	     13.01893182	     11.18637129	      7.21241538	     29.94402402	     89.95437384	      0.00000000	      0.00000000
      2.23000000	     18.66269974	     -2.13491392	      2.50126893	      0.30054679	      0.94981424	     -1.47578783	      2.14073462	     -0.52740245	    -15.49996862	    -24.63800803	     -0.43001436	      3.45735379	     -6.14597120	      9.64771637	    -24.03343838	      0.69914795	      8.63676400	    -14.54447491	     -0.25384898	     14.52318726	      1.38538224	     -4.71587809	    -24.11288050	      2.48672400	     -3.73700009	     -3.48090415	     -9.72102443	      2.49677285	     20.21306862	     89.95437384	      0.00000000	      0.00000000	     13.18896025	     11.08304202	      8.15913724	     31.29282118	     89.95437384	      0.00000000	      0.00000000
      2.24000000	     18.66423999	     -2.25746990	      2.86972153	      0.30763491	      0.94925058	     -1.47608440	      2.17127017	     -0.54487992	    -17.41022006	    -22.62142630	     -0.39481837	      3.22315517	     -3.19565557	      7.93046502	    -24.46638783	      1.00957808	      8.45822365	    -14.56198812	     -0.25415464	     14.56636005	      1.33369879	     -4.87906643	    -24.10442906	      2.74027946	     -3.99455511	     -3.79314755	     -9.72981454	      2.29965395	     20.47054183	     89.95437384	      0.00000000	      0.00000000	     13.35631553	     10.98617194	      8.84613314	     32.63228669	     89.95437384	      0.00000000	      0.00000000
      2.25000000	     18.56290244	     -2.17205329	      3.11265358	      0.31480434	      0.94844687	     -1.47642691	      2.43531964	     -0.93751587	    -19.78288078	    -20.92588671	     -0.36522562	      1.72906838	     -0.50370240	     -5.06826798	    -24.90780604	      0.96247800	      7.86028098	    -14.39267938	     -0.25119964	     14.74167271	      1.97817212	     -6.15123296	    -23.97034144	      2.74785466	     -4.23983975	     -4.06130408	     -9.73938988	      2.23045105	     20.60208867	     89.95437384	      0.00000000	      0.00000000	     13.47110706	     10.92724535	      9.30629842	     33.95184191	     89.95437384	      0.00000000	      0.00000000
      2.26000000	     18.51636631	     -2.43852813	      3.42219610	      0.32187191	      0.94774965	     -1.47627325	      2.49646285	     -0.58651852	    -21.20549173	    -19.08718478	     -0.33313422	      1.32923278	      1.60266861	     -5.34027945	    -25.22783944	      1.44473106	      7.85020955	    -14.56758392	     -0.25425230	     14.91622792	      1.76011582	     -6.19259763	    -23.92580996	      3.10451295	     -4.38864559	     -4.29806906	     -9.68882293	      1.78519089	     20.80835680	     89.95437384	      0.00000000	      0.00000000	     13.56318834	     10.86411960	      9.76412069	     35.34901715	     89.95437384	      0.00000000	      0.00000000
      2.27000000	     18.54123020	     -2.67733188	      3.71350510	      0.32906165	      0.94707528	     -1.47607516	      2.48371479	     -0.28681689	    -22.76805309	    -17.42566894	     -0.30413530	      1.09815085	      4.03361893	     -5.90747425	    -25.64714574	      1.90901476	      7.88019204	    -14.72442498	     -0.25698970	     15.11102641	      1.48675657	     -6.27304998	    -23.92782925	      3.43790390	     -4.53957693	     -4.52111554	     -9.68267145	      1.60703931	     20.92241156	     89.95437384	      0.00000000	      0.00000000	     13.63007980	     10.84047410	     10.02778953	     36.70809647	     89.95437384	      0.00000000	      0.00000000
